<?xml version="1.0" encoding="utf-8"?>
<!-- Generator: Adobe Illustrator 17.0.0, SVG Export Plug-In . SVG Version: 6.00 Build 0)  -->
<!DOCTYPE svg PUBLIC "-//W3C//DTD SVG 1.1//EN" "http://www.w3.org/Graphics/SVG/1.1/DTD/svg11.dtd">
<svg version="1.1" xmlns="http://www.w3.org/2000/svg" xmlns:xlink="http://www.w3.org/1999/xlink" x="0px" y="0px" width="782px"
	 height="227px" viewBox="0 0 782 227" enable-background="new 0 0 782 227" xml:space="preserve">
<g id="Background">
</g>
<g id="Graphic_Elements">
	<g>
		<g>
			<path fill="#FC9829" d="M744.984,84.769c-0.542,0.114-1.082,0.309-1.629,0.331c-5.196,0.22-10.398,0.351-15.59,0.652
				c-1.231,0.07-2.823,0.31-3.565,1.109c-1.796,1.928-3.916,2.244-6.311,2.377c-3.279,0.178-3.806,0.659-5.631,4.221
				c4.101,2.364,8.651,0.74,12.815,1.587c-0.514,0.413-1.117,0.896-2.27,1.824c2.156,0.793,3.767,1.802,5.442,1.923
				c4.632,0.336,9.292,0.301,13.939,0.419c1.293,0.033,2.604-0.027,3.875,0.163c3.314,0.5,6.344-0.459,9.764-1.425
				c-0.676-0.854-1.113-1.407-1.826-2.307c2.744,0,5.233,0,7.716,0c-1.13,4.158-1.435,4.427-5.301,4.562
				c-3.234,0.114-6.473,0.169-9.703,0.362c-1.15,0.07-2.408,0.224-3.398,0.751c-3.859,2.057-7.96,2.123-12.141,1.813
				c-0.643-0.048-1.429-0.432-1.899-0.186c-3.712,1.941-7.699,0.56-11.49,1.12c-2.704,0.4-5.297,1.543-7.94,2.353
				c0.007,0.305,0.015,0.61,0.022,0.915c1.394,0.314,2.784,0.65,4.184,0.94c5.404,1.119,10.636,2.88,16.372,2.368
				c5.407-0.485,10.892-0.105,17.094-0.105c-1.117,0.597-1.598,1.047-2.123,1.106c-5.422,0.612-10.846,1.22-16.281,1.688
				c-1.666,0.145-3.37-0.16-5.058-0.23c-1.941-0.083-3.914-0.378-5.822-0.154c-7.745,0.907-15.467,2.019-23.207,2.963
				c-2.439,0.298-4.917,0.259-7.371,0.466c-2.45,0.206-4.93,0.353-7.327,0.856c-1.839,0.384-3.293,1.492-3.031,4.228
				c8.192,0.316,16.275-0.404,24.931-1.187c-2,2.667-4.608,2.707-6.792,2.994c-11.202,1.464-22.437,2.669-33.66,3.969
				c-0.514,0.059-1.076,0.042-1.523,0.257c-0.419,0.204-1.019,0.687-0.997,1.01c0.039,0.558,0.371,1.365,0.81,1.567
				c0.775,0.354,1.723,0.443,2.601,0.454c3.628,0.044,7.257,0.018,11.156,0.018c-0.696,1.466-1.266,2.665-1.921,4.044
				c3.178,1.682,6.329,0.663,9.34,0.863c2.913,0.193,5.85,0.04,8.8,0.529c-7.077,1.853-14.607,0.132-21.528,2.796
				c-0.386,2.169,0.575,2.852,2.318,2.88c2.863,0.044,5.725,0.158,8.587,0.154c7.549-0.015,15.098-0.14,22.645-0.077
				c2.055,0.018,4.1,0.575,6.157,0.825c2.832,0.347,5.67,0.911,8.504,0.902c9.876-0.033,19.75-0.296,29.624-0.406
				c1.523-0.017,3.049,0.303,4.584,0.83c-4.838,1.793-9.964,1.098-14.91,1.818c-5.058,0.735-10.177,1.038-15.27,1.53
				c-0.026,0.347-0.05,0.696-0.075,1.043c0.887,0.182,1.774,0.516,2.661,0.52c6.485,0.017,12.971-0.07,19.456-0.042
				c3.198,0.013,6.465-0.487,10.276,1.082c-7.975,0.54-15.204,1.03-22.744,1.541c0.428,3.69-1.925,4.614-4.902,4.999
				c-4.507,0.584-9.009,1.232-13.5,1.934c-1.921,0.299-3.864,0.645-5.696,1.265c-1.073,0.364-1.947,1.311-2.766,2.454
				c3.721,1.319,7.411,0.782,11.375,0.83c-0.786,1.928-2.314,1.851-3.556,1.978c-4.27,0.435-8.557,0.694-12.829,1.115
				c-1.673,0.165-3.345,0.498-4.961,0.948c-0.441,0.123-0.983,0.984-0.935,1.451c0.05,0.476,0.716,1.181,1.203,1.264
				c1.523,0.261,3.088,0.275,5.352,0.435c-4.678,2.241-9.263,1.82-13.502,2.895c-4.144,1.049-8.265,2.184-12.357,3.646
				c3.018,1.271,6.004,0.582,9.051,0.198c3.176-0.399,6.406-0.358,9.806,0.145c-0.547,0.288-1.082,0.795-1.646,0.828
				c-4.522,0.275-9.094,0.143-13.571,0.736c-12.761,1.692-25.648,1.073-38.428,2.452c-24.34,2.628-48.81,3.22-73.248,4.263
				c-4.676,0.198-9.365,0.029-14.047,0.118c-1.669,0.031-3.335,0.318-5.001,0.498c-0.63,0.068-1.264,0.264-1.886,0.233
				c-3.611-0.182-7.22-0.584-10.831-0.602c-14.705-0.072-29.409,0.006-44.114-0.051c-6.351-0.024-12.703-0.239-19.054-0.358
				c-0.52-0.009-1.063-0.028-1.556,0.108c-7.806,2.153-15.768,0.821-23.649,0.957c-20.56,0.356-41.126,0.398-61.69,0.555
				c-14.058,0.105-28.116,0.178-42.174,0.285c-9.354,0.072-18.709,0.202-28.065,0.257c-19.511,0.116-39.025,0.217-58.536,0.286
				c-8.719,0.033-17.439-0.062-26.158-0.005c-2.03,0.013-4.059,0.408-6.092,0.628c-0.496,1.949,0.213,2.93,1.631,3.277
				c1.247,0.305,2.571,0.345,3.864,0.391c8.583,0.305,17.168,0.573,25.753,0.876c0.459,0.017,0.913,0.23,1.372,1.106
				c-4.138,0.287-8.276,0.808-12.414,0.812c-10.662,0.007-21.326-0.195-31.99-0.351c-7.538-0.108-15.081-0.116-22.608-0.461
				c-12.462-0.571-24.93-1.177-37.366-2.145c-10.497-0.815-20.946-2.221-31.426-3.271c-16.044-1.609-32.098-3.121-48.144-4.713
				c-3.102-0.307-6.193-0.766-9.279-1.225c-0.838-0.125-1.638-0.509-2.456-0.773c-0.004-0.266-0.009-0.533-0.013-0.801
				c1.418-0.099,2.851-0.371,4.256-0.268c6.215,0.459,12.422,1.027,18.633,1.561c0.257,0.022,0.518,0.16,0.766,0.134
				c3.921-0.387,7.841-0.794,11.661-1.186c-1.846-1.444-6.469-2.245-15.065-2.887c-5.446-0.406-10.862-1.163-16.297-1.721
				c-5.2-0.535-10.407-1.016-15.61-1.519c-0.007-0.303-0.017-0.604-0.024-0.906c3.084-0.263,6.168-0.523,9.825-0.834
				c-2.865-3.607-6.744-1.036-9.962-2.759c3.321-1.374,6.792,0.149,9.792-1.993c-2.498-1.62-4.979-0.929-7.354-1.073
				c-2.461-0.147-4.928-0.402-7.358-0.812c-2.279-0.386-4.74,1.17-6.889-0.775c10.405-0.007,20.683-1.392,31.051-1.581
				c0.035-0.325,0.07-0.65,0.105-0.975c-0.588-0.347-1.143-0.911-1.769-1.007c-2.788-0.419-5.591-0.781-8.399-1.019
				c-5.675-0.483-11.248-1.787-17.021-1.629c-4.008,0.108-8.034-0.68-12.058-0.924c-3.009-0.184-5.349-1.355-7.279-4.201
				c0.906-0.395,1.625-0.94,2.382-0.997c5.18-0.399,10.365-0.691,15.548-1.025c3.76-0.242,7.426-0.452,10.634-3.06
				c1.24-1.008,3.409-1.043,5.183-1.197c10.218-0.883,20.443-1.703,30.669-2.481c7.251-0.551,14.508-1.069,21.769-1.466
				c2.188-0.119,4.399,0.307,6.601,0.327c2.458,0.024,4.924-0.048,7.374-0.239c1.497-0.116,2.7-0.806,2.827-3.181
				c-5.995-0.358-11.883-0.711-17.954-1.073c1.851-2.808,4.579-3.85,7.694-4.208c6.41-0.735,12.763-2.064,19.274-1.811
				c1.073,0.04,2.158-0.259,3.238-0.4c0.017-0.255,0.033-0.511,0.05-0.766c-0.623-0.239-1.26-0.716-1.866-0.681
				c-4.008,0.237-8.008,0.593-12.012,0.893c-7.516,0.562-15.032,1.142-22.551,1.655c-3.885,0.264-7.779,0.582-11.665,0.544
				c-3.888-0.04-7.784-0.347-11.219-2.632c-0.685-0.456-1.747-0.343-2.632-0.503c-7.538-1.359-15.078-2.715-22.61-4.105
				c-0.312-0.057-0.566-0.443-0.922-0.74c1.315-1.467,2.63-0.527,3.978-0.318c4.706,0.731,9.441,1.826,14.139-0.017
				c1.018-0.4,1.947-1.027,2.863-2.004c-9.242-0.079-18.235-1.264-27.192-3.684c0.805-0.215,1.596-0.533,2.414-0.621
				c1.293-0.138,2.612-0.029,3.899-0.195c1.574-0.202,3.736,0.476,4.268-1.778c0.522-2.202-1.861-2.086-2.931-3.027
				c-0.083-0.072-0.116-0.198-0.226-0.395c0.76-0.577,1.532-1.163,2.849-2.165c-1.868-0.466-3.15-0.788-4.807-1.203
				c0.411-0.713,0.625-1.638,1.086-1.787c1.849-0.59,3.78-0.922,5.674-1.379c4.118-0.995,8.232-2.009,12.826-3.132
				c-1.622-2.05-3.497-2.371-4.882-2.121c-2.32,0.421-5.047-0.318-6.941,1.864c-0.208,0.237-0.856,0.16-1.289,0.119
				c-0.591-0.053-1.289-0.481-1.745-0.286c-5.716,2.448-11.502,1.087-17.225,0.239c-1.756-0.261-3.363-1.537-5.435-2.54
				c4.146-1.769,11.334-3.216,14.514-3.099c2.2,0.081,4.224-0.518,7.014-1.899c-4.643-1.381-8.462,0.373-12.622-0.143
				c1.8-2.476,3.837-4.212,6.559-4.638c3.964-0.619,5.629-4.136,8.697-5.833c-0.064-0.288-0.127-0.577-0.191-0.865
				c-2.097-0.108-4.281,0.103-6.271-0.419c-1.945-0.509-3.694-1.767-5.626-2.746c0.669-1.894,1.262-3.576,1.883-5.334
				c-3.144-1.506-4.269,2.852-7.143,2.182c-0.645-0.94-1.355-1.98-2.013-2.939c1.471-5.65,7.038-6.844,11.22-9.567
				c-0.114-0.235-0.23-0.468-0.345-0.702c-0.569-0.055-1.142-0.182-1.705-0.143c-0.623,0.044-1.232,0.242-2.048,0.415
				c-0.597-1.647-1.144-3.161-1.767-4.88c2.568-1.03,5.08-2.024,7.578-3.049c2.29-0.94,5.249,0.826,7.316-1.774
				c-1.086-1.888-2.943-1.563-4.5-1.75c-1.458-0.176-2.955-0.038-4.599-0.68c3.877-1.633,7.837-3.095,11.615-4.932
				c8.352-4.063,17.52-4.843,26.401-6.675c12.104-2.496,24.279-4.687,36.486-6.631c12.46-1.982,24.959-3.841,37.506-5.141
				c12.918-1.339,25.91-1.921,38.868-2.876c2.507-0.185,4.753,0.979,7.433,0.678c4.182-0.468,8.506,0.419,12.773,0.549
				c2.318,0.072,4.66-0.127,6.969-0.391c4.904-0.564,9.793-1.256,14.692-1.881c0.641-0.081,1.451-0.342,1.918-0.066
				c3.853,2.268,7.898,0.65,11.852,0.698c1.475,0.017,2.95,0.002,4.425,0.002c0.042,0.263,0.085,0.527,0.125,0.79
				c-1.484,0.709-2.968,1.42-4.452,2.131c0.042,0.261,0.083,0.52,0.125,0.781c1.703,0.106,3.413,0.162,5.11,0.331
				c1.673,0.167,3.33,0.612,5.001,0.656c5.578,0.149,11.164,0.318,16.74,0.208c7.655-0.153,15.303-0.658,22.959-0.81
				c5.29-0.106,10.589,0.125,15.884,0.202c0.52,0.007,1.043,0.033,1.557-0.022c11.516-1.236,23.045-1.253,34.604-0.643
				c4.346,0.23,8.724-0.219,13.088-0.253c10.105-0.081,20.211-0.097,30.317-0.136c0.522-0.004,1.052-0.044,1.561,0.038
				c16.534,2.623,33.23,1.774,49.857,2.245c26.406,0.746,52.82,1.243,79.232,1.782c7.013,0.143,14.031,0.064,21.045,0.059
				c2.79-0.002,3.286,0.568,3.249,3.312c-0.011,0.748,0.693,1.504,1.155,2.43c-0.468,0.04-1.288,0.114-2.105,0.184
				c-3.616,0.307-7.233,0.602-10.846,0.935c-0.507,0.048-1.104,0.134-1.48,0.43c-3.55,2.783-7.492,2.116-11.448,1.381
				c-1.627-0.301-5.277,0.727-7.226,1.699c-0.79,0.393-2.059,0.386-2.889,0.035c-2.588-1.093-5.191-1.548-8.656-1.043
				c-0.355,0.937-0.753,1.987-1.299,3.431c1.949,0.277,3.583,0.685,5.227,0.72c18.338,0.384,36.677,0.637,55.013,1.098
				c5.841,0.147,11.663,0.999,17.504,1.198c9.226,0.312,18.464,0.255,27.692,0.536c4.667,0.141,9.318,0.794,13.985,1.012
				c10.006,0.465,20.018,0.858,30.032,1.17c11.445,0.36,22.893,0.612,34.341,0.883c2.566,0.061,5.134,0.009,7.556,0.009
				c0.817,1.668,0.417,2.603-1.076,2.865c-1.014,0.178-2.081,0.04-3.108,0.173c-0.637,0.084-1.243,0.41-1.828,0.957
				c4.236,1.57,8.75,0.085,12.976,1.029c0.006,0.312,0.013,0.623,0.018,0.935c-1.605,0.213-3.205,0.514-4.818,0.624
				c-5.293,0.364-10.592,0.647-15.886,0.994c-0.902,0.059-1.857,0.129-2.676,0.465c-4.465,1.827-9.172,1.927-13.841,1.749
				c-8.59-0.329-17.083,0.67-25.607,1.346c-3.236,0.257-6.506,0.064-9.755,0.195c-1.188,0.048-2.36,0.435-3.541,0.667
				c0.005,0.281,0.011,0.56,0.015,0.839c0.654,0.22,1.3,0.61,1.96,0.634c11.937,0.43,23.875,0.804,35.812,1.221
				c1.688,0.059,3.376,0.426,5.055,0.373c2.32-0.072,4.133,0.893,5.225,2.722c0.832,1.39,1.791,1.624,3.179,1.613
				c2.469-0.018,4.941,0.055,7.409,0.152c1.875,0.075,3.874-0.373,5.209,1.738c0.349,0.553,1.671,0.575,2.566,0.687
				c3.089,0.384,6.204,1.091,9.272,0.94c3.785-0.187,6.482,1.894,9.294,3.642c1.449,0.902,2.733,1.174,4.322,1.231
				c7.538,0.274,15.072,0.645,22.606,0.992c0.437,0.02,0.871,0.156,1.306,0.239C744.967,84.36,744.975,84.566,744.984,84.769z
				 M193.537,93.391c-0.599-0.053-1.113-0.171-1.616-0.13c-6.081,0.476-12.159,1.03-18.246,1.44
				c-1.919,0.129-4.02,0.336-5.758-0.283c-2.494-0.887-4.41-0.136-6.743,0.74c2.358,1.785,6.726,2.222,16.799,2
				c5.637-0.125,11.277-0.145,17.274-0.217C194.525,95.444,194.042,94.44,193.537,93.391z M202.889,98.945
				c4.043,2.301,13.843,2.397,16.771,0.024c-4.792-1.157-9.332-2.412-13.942-3.293C203.745,95.299,202.579,96.563,202.889,98.945z
				 M28.815,154.686c4.087,1.359,11.595,1.073,13.61-0.432C37.889,154.074,33.348,153.392,28.815,154.686z"/>
			<path fill="#FC9829" d="M642.042,47.96c0.516-1.267,0.828-2.033,1.308-3.211c-3.488-0.257-6.665-0.591-9.852-0.709
				c-7.913-0.288-15.827-0.553-23.743-0.663c-2.693-0.037-5.394,0.421-8.091,0.656c-0.259,0.022-0.514,0.094-0.773,0.114
				c-5.558,0.408-11.213,1.602-16.644,0.948c-3.758-0.452-7.036,1.078-10.64,0.658c-3.462-0.406-7.011-0.048-10.521-0.097
				c-2.272-0.033-4.54-0.198-6.869-0.942c0.689-0.252,1.361-0.65,2.068-0.727c3.477-0.384,6.978-0.582,10.442-1.052
				c1.8-0.244,4.026,0.05,4.706-2.573c0.105-0.4,1.322-0.76,2.002-0.725c7.78,0.409,15.551,1.027,23.333,1.341
				c12.607,0.509,25.218,0.887,37.831,1.183c2.083,0.05,4.182-0.601,6.236-1.462c-5.872-1.804-11.827-1.754-17.79-1.938
				c-5.975-0.184-11.933-0.841-17.899-1.278c-6.037-0.443-12.078-0.871-18.117-1.304c-0.017-0.263-0.035-0.523-0.051-0.786
				c0.913-0.128,1.826-0.376,2.737-0.367c10.399,0.103,20.799,0.132,31.193,0.411c8.559,0.231,17.107,0.891,25.668,1.128
				c4.281,0.119,8.576-0.279,12.864-0.443c7.396-0.281,14.789-0.67,22.187-0.803c5.578-0.101,11.162,0.11,16.742,0.23
				c1.255,0.028,2.505,0.257,3.758,0.395c0.037,0.298,0.075,0.593,0.112,0.891c-2.816,0.729-5.633,1.458-8.829,2.285
				c1.515,1.671,3.308,1.464,4.827,1.578c15.028,1.113,30.063,2.134,45.097,3.201c0.178,0.013,0.34,0.294,0.771,0.692
				c-0.747,0.367-1.35,0.792-2.017,0.97c-5.446,1.451-10.967,1.578-16.549,0.999c-2.289-0.237-4.616-0.332-6.911-0.219
				c-9.847,0.485-19.675,1.337-29.558,0.961c-6.232-0.235-12.477-0.252-18.714-0.195c-3.618,0.033-7.233,0.571-10.851,0.586
				c-3.567,0.013-7.154,1.025-10.739-0.492c-1.154-0.487-2.784,0.141-4.195,0.277C645.194,47.609,643.822,47.769,642.042,47.96z"/>
			<path fill="#FC9829" d="M561.411,194.632c-0.566,0.626-0.648,0.803-0.74,0.808c-5.306,0.305-10.265,2.237-15.417,3.251
				c-2.026,0.399-3.934,0.202-4.816-2.232c-4.897,1.932-9.808,1.945-14.734,1.835c-8.811-0.2-17.621-0.397-26.432-0.601
				c-15.588-0.362-31.174-0.878-46.764-1.034c-9.22-0.092-18.446,0.426-27.672,0.577c-3.896,0.062-7.799-0.081-11.696-0.213
				c-0.81-0.028-1.607-0.413-2.386-0.922c2.779-1.267,5.688-1.199,8.565-1.218c2.972-0.016,5.945,0.088,8.917,0.189
				c9.217,0.316,18.398-0.444,27.593-0.819c8.695-0.354,17.386-0.76,26.081-1.039c6.858-0.22,13.722-0.388,20.582-0.366
				c2.941,0.009,5.876,0.782,8.82,0.825c15.985,0.232,31.973,0.338,47.96,0.509C559.847,194.188,560.422,194.417,561.411,194.632z"
				/>
			<path fill="#FC9829" d="M703.627,184.576c-2.516,2.063-4.944,2.72-7.536,3.091c-3.969,0.568-7.914,1.315-11.885,1.89
				c-3.211,0.465-6.441,0.805-9.667,1.168c-5.644,0.639-11.391,0.808-16.911,2.019c-4.616,1.012-9.187,1.574-13.86,1.633
				c-1.412,0.018-2.83-0.213-4.243-0.356c-0.514-0.051-1.032-0.294-1.53-0.25c-6.531,0.58-13.054,1.299-19.594,1.771
				c-5.123,0.371-10.267,0.448-15.527-0.088c2.048-0.421,4.079-1.012,6.151-1.231c5.931-0.621,11.891-0.983,17.816-1.653
				c5.534-0.626,11.022-1.637,16.556-2.252c4.516-0.503,9.071-0.658,13.606-0.997c9.189-0.691,18.376-1.41,27.567-2.098
				c3.471-0.259,6.969-0.296,10.414-0.74C697.714,186.13,700.383,185.313,703.627,184.576z"/>
			<path fill="#FC9829" d="M320.734,191.161c-2.928-0.231-5.852-0.538-8.783-0.672c-2.45-0.112-4.909-0.02-7.363-0.02
				c-8.44,0-16.879-0.09-25.315,0.029c-5.714,0.081-11.424,0.461-17.136,0.694c-0.494,0.02-0.994-0.05-1.583-0.794
				c1.967-0.336,3.921-0.812,5.901-0.988c10.574-0.951,51.154-0.226,54.33,0.913C320.767,190.602,320.75,190.882,320.734,191.161z"
				/>
			<path fill="#FC9829" d="M564.246,199.463c0.639-0.909,0.748-1.236,0.906-1.264c6.702-1.161,13.41-2.294,19.794-3.378
				c1.278,1.51,2.151,2.54,3.425,4.046C580.321,199.066,572.556,199.257,564.246,199.463z"/>
			<path fill="#FC9829" d="M324.196,190.198c1.574-0.25,2.816-0.619,4.054-0.612c5.205,0.037,10.411,0.186,16.009,0.301
				C339.474,192.191,328.432,192.367,324.196,190.198z"/>
			<path fill="#FC9829" d="M388.817,190.408c-3.481,2.265-6.658,0.637-9.656,0.959C382.115,190.549,385.074,189.807,388.817,190.408
				z"/>
			<path fill="#FC9829" d="M723.057,79.944c1.771-1.613,3.736-0.694,5.637-0.612c0.037,0.356,0.075,0.713,0.112,1.069
				c-1.85,0.169-3.699,0.338-5.549,0.505C723.191,80.587,723.123,80.266,723.057,79.944z"/>
			<path fill="#FC9829" d="M613.061,199.057c-2.158,0-4.316,0-6.473,0c-0.022-0.112-0.042-0.222-0.062-0.332
				c2.158-0.136,4.318-0.27,6.476-0.406C613.022,198.564,613.042,198.811,613.061,199.057z"/>
			<path fill="#FC9829" d="M747.315,95.687c1.361-0.063,2.72-0.125,4.081-0.187c0.029,0.235,0.059,0.472,0.088,0.709
				c-1.365,0.191-2.729,0.384-4.094,0.577C747.364,96.418,747.339,96.052,747.315,95.687z"/>
			<path fill="#FC9829" d="M752.593,84.736c-0.929,0-1.857,0-2.784,0c-0.015-0.171-0.028-0.342-0.042-0.512
				c0.917-0.072,1.835-0.141,2.751-0.213C752.544,84.253,752.568,84.494,752.593,84.736z"/>
			<path fill="#FC9829" d="M753.934,143.421c0.738,0.044,1.479,0.088,2.219,0.132c-0.016,0.23-0.035,0.459-0.051,0.689
				c-0.74-0.046-1.48-0.092-2.219-0.138C753.899,143.877,753.916,143.649,753.934,143.421z"/>
			<path fill="#FC9829" d="M402.523,190.466c0.826-0.072,1.653-0.143,2.481-0.215c0.037,0.235,0.075,0.47,0.114,0.705
				c-0.823,0.169-1.647,0.338-2.47,0.509C402.605,191.133,402.565,190.799,402.523,190.466z"/>
			<path fill="#FC9829" d="M730.821,89.545c0.577,0,1.155,0,2.494,0c-0.915,0.551-1.22,0.856-1.559,0.902
				c-0.299,0.04-0.639-0.209-0.962-0.331C730.803,89.925,730.812,89.734,730.821,89.545z"/>
		</g>
	</g>
</g>
</svg>
